<?xml version="1.0" standalone="no"?>
<!DOCTYPE svg PUBLIC "-//W3C//DTD SVG 20010904//EN"
 "http://www.w3.org/TR/2001/REC-SVG-20010904/DTD/svg10.dtd">
<svg version="1.0" xmlns="http://www.w3.org/2000/svg"
 width="666.000000pt" height="375.000000pt" viewBox="0 0 666.000000 375.000000"
 preserveAspectRatio="xMidYMid meet">

<g transform="translate(0.000000,375.000000) scale(0.100000,-0.100000)"
fill="#000000" stroke="none">
<path d="M630 1850 l0 -420 415 0 415 0 0 420 0 420 -415 0 -415 0 0 -420z
m400 331 c0 -39 -4 -73 -10 -76 -5 -3 -24 2 -41 11 -30 15 -33 15 -58 -4 -34
-25 -39 -70 -10 -101 14 -15 28 -21 43 -17 11 3 33 8 49 12 l27 6 0 -76 0 -76
-69 0 c-76 0 -93 14 -66 53 22 31 19 53 -11 76 -34 27 -64 27 -93 0 -17 -16
-21 -28 -16 -48 19 -74 17 -76 -62 -79 l-73 -3 0 196 0 195 195 0 195 0 0 -69z
m-169 -201 c22 -12 25 -41 7 -69 -9 -15 -9 -25 0 -45 11 -25 16 -26 86 -26
l75 0 3 -76 c4 -91 16 -106 71 -86 53 19 82 0 70 -47 -6 -24 -40 -38 -56 -22
-15 15 -60 14 -75 -1 -7 -7 -12 -42 -12 -85 l0 -73 -195 0 -195 0 0 195 0 195
73 0 c61 0 77 3 92 20 17 19 18 22 2 55 -18 38 -14 61 11 68 10 3 18 5 20 6 2
0 12 -4 23 -9z m334 -150 c3 -6 0 -26 -7 -46 -14 -40 -6 -60 35 -84 24 -13 28
-13 54 6 28 21 33 46 22 109 -4 18 2 20 69 23 l72 3 0 -196 0 -195 -195 0
-195 0 0 69 c0 39 5 73 10 76 6 3 26 1 45 -6 45 -17 81 -1 90 40 13 60 -42
106 -90 75 -43 -28 -55 -13 -55 66 l0 70 69 0 c39 0 73 -5 76 -10z"/>
<path d="M3566 2015 c-11 -8 -17 -18 -13 -21 3 -4 -3 -14 -14 -23 -26 -21 -69
-141 -69 -191 0 -30 5 -40 20 -45 26 -8 40 1 40 26 0 15 7 19 39 19 33 0 40
-4 45 -25 13 -52 69 -16 59 38 -12 63 -45 137 -73 166 l-29 29 24 6 c16 4 22
11 19 21 -8 19 -23 19 -48 0z m24 -192 c0 -7 -11 -13 -24 -13 -24 0 -24 2 -14
32 10 29 12 30 25 13 7 -11 13 -25 13 -32z"/>
<path d="M3716 1965 c-22 -23 -26 -186 -4 -212 14 -17 108 -26 141 -14 19 7
27 18 27 35 0 24 -2 24 -61 19 l-62 -6 6 74 c3 41 7 83 9 94 4 26 -33 32 -56
10z"/>
<path d="M4075 1938 c-11 -70 -28 -119 -39 -115 -6 2 -30 36 -54 75 -39 62
-47 70 -63 61 -24 -13 -24 -42 1 -94 46 -95 127 -156 165 -125 26 21 62 181
50 220 -4 12 -15 20 -30 20 -20 0 -24 -6 -30 -42z"/>
<path d="M4222 1959 c-23 -24 -62 -141 -62 -186 0 -45 56 -64 62 -20 2 18 10
23 41 25 20 2 37 -1 37 -5 0 -5 6 -17 13 -27 12 -16 17 -17 36 -6 19 10 22 18
18 43 -9 54 -46 143 -72 171 -29 31 -48 33 -73 5z m55 -119 c11 -28 10 -30
-13 -30 -26 0 -27 3 -18 38 8 30 17 28 31 -8z"/>
<path d="M5466 1958 c-22 -34 -53 -118 -61 -165 -6 -36 -4 -43 15 -53 28 -15
50 -6 50 20 0 17 6 20 39 20 33 0 40 -4 45 -26 5 -20 11 -24 29 -18 44 14 43
46 -5 154 -40 91 -81 116 -112 68z m64 -135 c0 -7 -11 -13 -25 -13 -29 0 -29
-1 -14 37 10 27 11 27 25 9 8 -11 14 -26 14 -33z"/>
<path d="M6201 1954 c-22 -28 -61 -141 -61 -178 0 -47 55 -65 66 -21 5 19 13
25 35 25 16 0 32 1 36 3 4 1 9 -7 11 -18 6 -30 18 -38 41 -26 28 15 27 44 -4
128 -23 66 -61 113 -90 113 -7 0 -23 -12 -34 -26z m47 -142 c-28 -5 -33 4 -18
35 l13 28 12 -30 c12 -27 12 -30 -7 -33z"/>
<path d="M6392 1967 c-16 -19 -26 -117 -18 -171 8 -53 23 -60 114 -61 54 0 75
13 69 45 -2 12 -15 14 -59 12 -68 -5 -74 5 -58 103 6 36 8 70 5 76 -9 13 -41
11 -53 -4z"/>
<path d="M1591 1955 l-34 -15 5 -79 c3 -53 11 -88 22 -106 18 -27 20 -28 88
-21 80 7 108 19 108 45 0 28 -7 29 -67 15 -31 -7 -60 -11 -65 -8 -19 12 -5 32
28 38 29 6 35 11 32 29 -3 19 -8 22 -40 19 -33 -3 -38 -1 -38 17 0 25 35 36
84 27 39 -8 52 4 36 34 -9 17 -21 20 -68 20 -31 -1 -72 -7 -91 -15z"/>
<path d="M1898 1959 c-18 -7 -29 -20 -33 -41 -10 -41 3 -138 22 -167 14 -22
19 -23 85 -17 80 7 108 19 108 45 0 28 -7 29 -67 15 -31 -7 -60 -11 -65 -8
-19 12 -5 32 27 38 29 6 35 11 35 32 0 23 -2 24 -40 18 -36 -6 -40 -4 -40 15
0 25 34 36 85 28 38 -6 49 3 40 33 -5 17 -15 20 -68 19 -34 0 -74 -5 -89 -10z"/>
<path d="M2438 1958 c-20 -7 -29 -19 -34 -44 -7 -39 10 -150 27 -170 14 -17
69 -18 139 -3 47 10 50 13 50 41 0 25 -3 29 -17 23 -44 -16 -108 -23 -115 -12
-13 20 -9 25 26 31 35 7 47 20 38 43 -3 9 -16 11 -43 7 -35 -6 -39 -4 -39 15
0 25 34 36 85 28 38 -6 49 3 40 33 -5 17 -15 20 -68 19 -34 0 -74 -5 -89 -11z"/>
<path d="M2655 1953 c-4 -10 -9 -61 -12 -115 l-6 -96 56 -7 c70 -9 118 6 153
48 37 44 29 90 -25 138 -55 50 -151 68 -166 32z m123 -79 c30 -21 28 -52 -4
-65 -44 -16 -64 -3 -64 42 0 34 3 39 23 39 12 0 33 -7 45 -16z"/>
<path d="M4677 1959 c-16 -6 -30 -21 -33 -35 -10 -40 6 -152 25 -176 17 -20
22 -21 96 -12 80 9 105 24 92 57 -5 13 -13 13 -63 1 -32 -7 -61 -11 -66 -8
-19 12 -5 32 27 38 29 6 35 11 35 32 0 23 -2 24 -40 18 -36 -6 -40 -4 -40 15
0 26 35 36 91 27 39 -6 40 -6 37 21 -3 27 -5 28 -68 30 -36 1 -77 -3 -93 -8z"/>
<path d="M5234 1951 c-45 -20 -74 -54 -74 -85 0 -11 9 -39 20 -62 35 -70 128
-97 184 -53 25 20 26 23 12 37 -12 13 -18 14 -28 4 -19 -19 -82 -15 -101 6
-45 49 -1 109 72 99 42 -5 61 6 61 35 0 39 -80 49 -146 19z"/>
<path d="M5680 1961 c-29 -5 -35 -11 -42 -41 -8 -38 0 -131 14 -169 8 -23 11
-23 73 -17 36 4 76 11 89 15 61 24 74 77 26 111 -25 18 -28 24 -18 39 32 52
-35 81 -142 62z m63 -37 c11 -11 -5 -34 -24 -34 -12 0 -19 7 -19 20 0 19 28
28 43 14z m31 -100 c9 -3 16 -14 16 -23 0 -44 -65 -58 -76 -17 -10 41 15 57
60 40z"/>
<path d="M2220 1949 c-35 -14 -40 -26 -39 -94 2 -98 10 -119 43 -123 21 -3 27
0 24 10 -11 29 10 55 49 61 51 9 83 32 83 63 0 70 -83 113 -160 83z m90 -54
c19 -23 4 -45 -30 -45 -25 0 -30 4 -30 23 0 13 3 27 7 30 11 12 40 8 53 -8z"/>
<path d="M2921 1944 l-34 -14 6 -63 c4 -34 11 -79 17 -99 9 -32 15 -38 39 -38
25 0 27 3 23 30 -6 45 19 47 61 5 39 -39 45 -41 73 -21 18 14 18 15 -9 36 -31
24 -33 41 -12 74 11 17 13 30 6 48 -20 54 -99 73 -170 42z m107 -56 c2 -9 -6
-22 -19 -28 -17 -10 -24 -9 -37 3 -8 9 -12 23 -8 32 8 22 60 16 64 -7z"/>
<path d="M3235 1944 c-59 -30 -95 -82 -95 -134 0 -34 53 -80 92 -80 73 0 128
62 128 144 0 36 -5 48 -26 65 -32 25 -59 26 -99 5z m33 -96 c17 -17 15 -48 -4
-55 -21 -8 -59 30 -51 51 7 19 38 21 55 4z"/>
<path d="M4418 1944 c-25 -13 -28 -21 -28 -63 0 -26 7 -71 15 -99 14 -44 19
-52 40 -52 22 0 25 4 25 35 0 42 17 45 51 9 38 -41 58 -48 79 -29 18 16 17 18
-13 45 -30 27 -31 29 -14 47 18 20 22 49 11 78 -16 41 -113 58 -166 29z m109
-50 c7 -18 -20 -44 -44 -44 -17 0 -27 25 -19 45 7 20 55 19 63 -1z"/>
<path d="M5921 1944 l-34 -14 6 -68 c8 -95 23 -132 53 -132 20 0 24 5 24 29 0
45 17 46 60 7 45 -40 49 -41 74 -23 17 12 16 15 -14 46 -30 30 -31 33 -16 50
43 48 -4 121 -78 121 -23 -1 -56 -7 -75 -16z m106 -50 c7 -18 -20 -44 -44 -44
-17 0 -27 25 -19 45 7 20 55 19 63 -1z"/>
<path d="M4923 1928 c-47 -23 -41 -71 12 -106 19 -12 35 -27 35 -32 0 -16 -43
-12 -69 6 -22 16 -22 16 -19 -12 7 -63 148 -70 176 -9 15 33 4 56 -43 84 -46
27 -46 45 0 38 40 -7 52 5 29 27 -18 18 -87 20 -121 4z"/>
<path d="M1813 1773 c-7 -3 -13 -14 -13 -25 0 -14 6 -19 22 -16 13 2 24 10 26
19 3 18 -15 29 -35 22z"/>
</g>
</svg>
