<?xml version="1.0" standalone="no"?>
<!DOCTYPE svg PUBLIC "-//W3C//DTD SVG 20010904//EN"
 "http://www.w3.org/TR/2001/REC-SVG-20010904/DTD/svg10.dtd">
<svg version="1.0" xmlns="http://www.w3.org/2000/svg"
 width="500.000000pt" height="500.000000pt" viewBox="0 0 500.000000 500.000000"
 preserveAspectRatio="xMidYMid meet">

<g transform="translate(0.000000,500.000000) scale(0.100000,-0.100000)"
fill="#000000" stroke="none">
<path d="M26 4984 c-17 -17 -17 -16 -16 -3709 0 -1159 1 -1251 17 -1263 13 -9
522 -12 2464 -12 2212 0 2449 2 2463 16 17 17 17 19 16 3708 0 1134 -2 1241
-17 1258 -15 17 -115 18 -2464 18 -2212 0 -2449 -2 -2463 -16z m2424 -504 l0
-410 -39 -39 c-76 -76 -140 -69 -288 31 -47 31 -132 58 -183 58 -48 0 -134
-26 -179 -54 -20 -13 -53 -42 -73 -64 -148 -164 -140 -423 19 -573 129 -122
291 -131 441 -25 84 59 147 74 208 51 25 -9 55 -31 69 -49 l25 -33 0 -406 0
-407 -410 0 c-360 0 -414 2 -435 16 -39 25 -65 76 -65 125 0 45 37 140 60 154
20 13 68 124 75 175 8 58 -14 153 -48 207 -36 56 -111 121 -175 151 -51 24
-68 27 -172 27 -109 0 -118 -2 -182 -33 -128 -63 -208 -184 -208 -316 0 -81
19 -134 77 -219 38 -55 47 -77 51 -122 5 -65 -9 -106 -50 -140 l-30 -25 -414
0 -414 0 0 1165 0 1165 1170 0 1170 0 0 -410z m-1069 -1185 c113 -40 179 -125
179 -230 0 -52 -5 -69 -34 -115 -76 -120 -89 -152 -94 -228 -6 -89 13 -144 68
-201 81 -83 68 -81 520 -81 l400 0 0 -414 c0 -245 4 -425 10 -440 14 -38 89
-115 133 -138 61 -31 133 -34 213 -9 38 11 81 29 95 38 15 10 45 31 67 46 106
74 248 25 315 -108 26 -50 31 -72 31 -135 1 -66 -3 -84 -32 -142 -36 -73 -80
-113 -146 -133 -68 -21 -125 -5 -209 56 -85 61 -213 86 -298 58 -51 -18 -108
-63 -146 -115 l-33 -48 0 -423 0 -423 -1150 0 -1150 0 0 1165 0 1165 411 0
c346 0 416 2 443 15 95 46 159 141 160 240 0 71 -23 145 -64 200 -71 96 -88
180 -51 260 23 51 99 119 154 139 56 19 154 20 208 1z m2012 -891 c67 -68 63
-141 -18 -263 -37 -55 -57 -99 -65 -138 -33 -155 52 -312 208 -386 63 -30 73
-32 182 -32 104 0 121 3 172 27 73 34 146 102 183 170 23 42 30 69 33 134 5
97 -5 134 -62 217 -55 82 -66 109 -66 163 0 52 19 94 56 123 26 21 36 21 435
21 l409 0 0 -1165 0 -1165 -1165 0 -1165 0 0 410 0 410 39 39 c50 50 94 60
165 38 28 -9 75 -35 105 -57 140 -105 325 -89 445 40 186 199 138 524 -96 647
-47 25 -63 28 -148 28 -103 0 -111 -3 -248 -90 -73 -46 -120 -53 -177 -25 -25
12 -53 36 -65 54 -19 32 -20 48 -20 435 l0 401 413 0 414 0 36 -36z"/>
</g>
</svg>
